G04 EAGLE Gerber RS-274X export*
G75*
%MOMM*%
%FSLAX34Y34*%
%LPD*%
%IN*%
%IPPOS*%
%AMOC8*
5,1,8,0,0,1.08239X$1,22.5*%
G01*
%ADD10C,0.254000*%


D10*
X0Y25400D02*
X97Y23186D01*
X386Y20989D01*
X865Y18826D01*
X1532Y16713D01*
X2380Y14666D01*
X3403Y12700D01*
X4594Y10831D01*
X5942Y9073D01*
X7440Y7440D01*
X9073Y5942D01*
X10831Y4594D01*
X12700Y3403D01*
X14666Y2380D01*
X16713Y1532D01*
X18826Y865D01*
X20989Y386D01*
X23186Y97D01*
X25400Y0D01*
X474600Y0D01*
X476814Y97D01*
X479011Y386D01*
X481174Y865D01*
X483287Y1532D01*
X485335Y2380D01*
X487300Y3403D01*
X489169Y4594D01*
X490927Y5942D01*
X492561Y7440D01*
X494058Y9073D01*
X495406Y10831D01*
X496597Y12700D01*
X497620Y14666D01*
X498468Y16713D01*
X499135Y18826D01*
X499614Y20989D01*
X499903Y23186D01*
X500000Y25400D01*
X500000Y474600D01*
X499903Y476814D01*
X499614Y479011D01*
X499135Y481174D01*
X498468Y483287D01*
X497620Y485335D01*
X496597Y487300D01*
X495406Y489169D01*
X494058Y490927D01*
X492561Y492561D01*
X490927Y494058D01*
X489169Y495406D01*
X487300Y496597D01*
X485335Y497620D01*
X483287Y498468D01*
X481174Y499135D01*
X479011Y499614D01*
X476814Y499903D01*
X474600Y500000D01*
X25400Y500000D01*
X23186Y499903D01*
X20989Y499614D01*
X18826Y499135D01*
X16713Y498468D01*
X14666Y497620D01*
X12700Y496597D01*
X10831Y495406D01*
X9073Y494058D01*
X7440Y492561D01*
X5942Y490927D01*
X4594Y489169D01*
X3403Y487300D01*
X2380Y485335D01*
X1532Y483287D01*
X865Y481174D01*
X386Y479011D01*
X97Y476814D01*
X0Y474600D01*
X0Y25400D01*
X435610Y241395D02*
X435539Y240316D01*
X435398Y239244D01*
X435187Y238184D01*
X434908Y237140D01*
X434560Y236116D01*
X434146Y235118D01*
X433668Y234148D01*
X433128Y233212D01*
X432527Y232313D01*
X431869Y231456D01*
X431157Y230643D01*
X430392Y229879D01*
X429579Y229166D01*
X428722Y228508D01*
X427823Y227907D01*
X426887Y227367D01*
X425917Y226889D01*
X424919Y226475D01*
X423895Y226127D01*
X422851Y225848D01*
X421791Y225637D01*
X420719Y225496D01*
X419640Y225425D01*
X418560Y225425D01*
X417481Y225496D01*
X416409Y225637D01*
X415349Y225848D01*
X414305Y226127D01*
X413281Y226475D01*
X412283Y226889D01*
X411313Y227367D01*
X410377Y227907D01*
X409478Y228508D01*
X408621Y229166D01*
X407808Y229879D01*
X407044Y230643D01*
X406331Y231456D01*
X405673Y232313D01*
X405072Y233212D01*
X404532Y234148D01*
X404054Y235118D01*
X403640Y236116D01*
X403292Y237140D01*
X403013Y238184D01*
X402802Y239244D01*
X402661Y240316D01*
X402590Y241395D01*
X402590Y242475D01*
X402661Y243554D01*
X402802Y244626D01*
X403013Y245686D01*
X403292Y246730D01*
X403640Y247754D01*
X404054Y248752D01*
X404532Y249722D01*
X405072Y250658D01*
X405673Y251557D01*
X406331Y252414D01*
X407044Y253227D01*
X407808Y253992D01*
X408621Y254704D01*
X409478Y255362D01*
X410377Y255963D01*
X411313Y256503D01*
X412283Y256981D01*
X413281Y257395D01*
X414305Y257743D01*
X415349Y258022D01*
X416409Y258233D01*
X417481Y258374D01*
X418560Y258445D01*
X419640Y258445D01*
X420719Y258374D01*
X421791Y258233D01*
X422851Y258022D01*
X423895Y257743D01*
X424919Y257395D01*
X425917Y256981D01*
X426887Y256503D01*
X427823Y255963D01*
X428722Y255362D01*
X429579Y254704D01*
X430392Y253992D01*
X431157Y253227D01*
X431869Y252414D01*
X432527Y251557D01*
X433128Y250658D01*
X433668Y249722D01*
X434146Y248752D01*
X434560Y247754D01*
X434908Y246730D01*
X435187Y245686D01*
X435398Y244626D01*
X435539Y243554D01*
X435610Y242475D01*
X435610Y241395D01*
X261650Y459875D02*
X261579Y458878D01*
X261436Y457888D01*
X261224Y456911D01*
X260942Y455951D01*
X260593Y455014D01*
X260177Y454104D01*
X259698Y453227D01*
X259157Y452385D01*
X258558Y451585D01*
X257903Y450829D01*
X257196Y450122D01*
X256440Y449467D01*
X255640Y448868D01*
X254798Y448327D01*
X253921Y447848D01*
X253011Y447432D01*
X252074Y447083D01*
X251115Y446801D01*
X250137Y446589D01*
X249148Y446446D01*
X248150Y446375D01*
X247150Y446375D01*
X246153Y446446D01*
X245163Y446589D01*
X244186Y446801D01*
X243226Y447083D01*
X242289Y447432D01*
X241379Y447848D01*
X240502Y448327D01*
X239660Y448868D01*
X238860Y449467D01*
X238104Y450122D01*
X237397Y450829D01*
X236742Y451585D01*
X236143Y452385D01*
X235602Y453227D01*
X235123Y454104D01*
X234707Y455014D01*
X234358Y455951D01*
X234076Y456911D01*
X233864Y457888D01*
X233721Y458878D01*
X233650Y459875D01*
X233650Y460875D01*
X233721Y461873D01*
X233864Y462862D01*
X234076Y463840D01*
X234358Y464799D01*
X234707Y465736D01*
X235123Y466646D01*
X235602Y467523D01*
X236143Y468365D01*
X236742Y469165D01*
X237397Y469921D01*
X238104Y470628D01*
X238860Y471283D01*
X239660Y471882D01*
X240502Y472423D01*
X241379Y472902D01*
X242289Y473318D01*
X243226Y473667D01*
X244186Y473949D01*
X245163Y474161D01*
X246153Y474304D01*
X247150Y474375D01*
X248150Y474375D01*
X249148Y474304D01*
X250137Y474161D01*
X251115Y473949D01*
X252074Y473667D01*
X253011Y473318D01*
X253921Y472902D01*
X254798Y472423D01*
X255640Y471882D01*
X256440Y471283D01*
X257196Y470628D01*
X257903Y469921D01*
X258558Y469165D01*
X259157Y468365D01*
X259698Y467523D01*
X260177Y466646D01*
X260593Y465736D01*
X260942Y464799D01*
X261224Y463840D01*
X261436Y462862D01*
X261579Y461873D01*
X261650Y460875D01*
X261650Y459875D01*
M02*
