G04 EAGLE Gerber RS-274X export*
G75*
%MOMM*%
%FSLAX34Y34*%
%LPD*%
%INSoldermask Top*%
%IPPOS*%
%AMOC8*
5,1,8,0,0,1.08239X$1,22.5*%
G01*
%ADD10P,2.199416X8X202.500000*%
%ADD11P,2.199416X8X22.500000*%
%ADD12C,2.336800*%
%ADD13C,2.336800*%
%ADD14C,3.505200*%
%ADD15P,2.199416X8X112.500000*%
%ADD16R,2.269200X2.269200*%
%ADD17C,2.269200*%
%ADD18C,2.540000*%
%ADD19C,2.235200*%
%ADD20C,3.003200*%
%ADD21R,1.503200X1.503200*%


D10*
X193675Y307975D03*
X168275Y307975D03*
D11*
X95250Y307975D03*
X120650Y307975D03*
D12*
X208301Y361884D03*
X136459Y433726D03*
D10*
X292100Y361950D03*
X266700Y361950D03*
D13*
X393700Y77343D02*
X393700Y56007D01*
X419100Y56007D02*
X419100Y77343D01*
X444500Y77343D02*
X444500Y56007D01*
D14*
X419100Y241935D03*
D15*
X318659Y58015D03*
X318659Y159615D03*
X463550Y292100D03*
X463550Y393700D03*
D16*
X95475Y234950D03*
D17*
X95475Y209550D03*
X95475Y184150D03*
D16*
X95475Y158750D03*
D17*
X120875Y158750D03*
X120875Y184150D03*
X120875Y209550D03*
X120875Y234950D03*
D18*
X46609Y441071D02*
X23241Y441071D01*
X23241Y390779D02*
X46609Y390779D01*
X406146Y445516D02*
X406146Y468884D01*
X355854Y468884D02*
X355854Y445516D01*
D19*
X60325Y70485D02*
X60325Y50165D01*
X85725Y50165D02*
X85725Y70485D01*
X111125Y70485D02*
X111125Y50165D01*
X136525Y50165D02*
X136525Y70485D01*
X161925Y70485D02*
X161925Y50165D01*
X187325Y50165D02*
X187325Y70485D01*
X212725Y70485D02*
X212725Y50165D01*
X238125Y50165D02*
X238125Y70485D01*
D20*
X247650Y460375D03*
D21*
X111125Y123825D03*
X187325Y123825D03*
X149225Y234950D03*
X149225Y184150D03*
X149225Y254000D03*
X212725Y254000D03*
X111125Y101600D03*
X165100Y101600D03*
M02*
