M48
;GenerationSoftware,Autodesk,EAGLE,9.6.0*%
;CreationDate,2021-02-05T02:21:16Z*%
FMAT,2
ICI,OFF
METRIC,TZ,000.000
T9C0.600
T8C0.700
T7C0.813
T6C1.016
T5C1.050
T4C1.118
T3C1.321
T2C2.800
T1C3.302
%
G90
M71
T1
X41910Y24193
T2
X24765Y46037
T3
X3492Y44107
X3492Y39078
X40615Y45720
X35585Y45720
T4
X44450Y6667
X39370Y6667
X41910Y6667
X20830Y36188
X13646Y43373
T5
X12087Y23495
X12087Y20955
X12087Y18415
X12087Y15875
X9548Y15875
X9548Y20955
X9548Y23495
X9548Y18415
T6
X11112Y6032
X6032Y6032
X8573Y6032
X13652Y6032
X16192Y6032
X18733Y6032
X21273Y6032
X23812Y6032
T7
X16828Y30797
X9525Y30797
X12065Y30797
X29210Y36195
X31866Y5801
X26670Y36195
X46355Y29210
X46355Y39370
X31866Y15961
X19368Y30797
T8
X14922Y18415
X14922Y23495
X16510Y10160
X11112Y10160
T9
X11112Y12382
X18733Y12382
X21273Y25400
X14922Y25400
M30